<svg xmlns="http://www.w3.org/2000/svg" width="44.999" height="44.998" viewBox="0 0 44.999 44.998"><defs><style>.a{fill:#fff;}.b{fill:#4b2615;}</style></defs><g transform="translate(-833.137 -1120.358)"><path class="a" d="M833.137,1142.879a22.5,22.5,0,1,0,22.63-22.521A22.51,22.51,0,0,0,833.137,1142.879Z"/><path class="b" d="M833.137,1142.879a22.5,22.5,0,1,1,22.4,22.477A22.489,22.489,0,0,1,833.137,1142.879Zm28.97-.014v-5.376h-4.085c0-.464,0-.879,0-1.294.006-1.052.44-1.492,1.485-1.5.855,0,1.711,0,2.6,0v-5.372c-1.3,0-2.495-.012-3.688.005a9.457,9.457,0,0,0-1.954.12,5.256,5.256,0,0,0-4.166,5.286c-.014.9,0,1.807,0,2.782h-3.082v5.363h3.1v13.457h5.72v-13.474Z"/><path class="a" d="M862.107,1142.865h-4.07v13.474h-5.72v-13.457h-3.1v-5.363H852.3c0-.975-.012-1.879,0-2.782a5.256,5.256,0,0,1,4.166-5.286,9.457,9.457,0,0,1,1.954-.12c1.193-.017,2.386-.005,3.688-.005v5.372c-.888,0-1.744,0-2.6,0-1.045.005-1.479.445-1.485,1.5,0,.415,0,.83,0,1.294h4.085v5.376Z"/></g></svg>