<svg xmlns="http://www.w3.org/2000/svg" width="44.999" height="44.956" viewBox="0 0 44.999 44.956"><defs><style>.a{fill:#fff;}.b{fill:#4b2615;}</style></defs><g transform="translate(-761.495 -1120.379)"><path class="a" d="M783.954,1120.384c-12.06-.245-22.912,10.046-22.444,23.34a22.5,22.5,0,1,0,22.444-23.34Z"/><path class="b" d="M783.954,1120.384a22.478,22.478,0,1,1-22.444,23.34C761.042,1130.43,771.894,1120.139,783.954,1120.384Zm-14.83,22.4h.009c0,2.084-.009,4.168,0,6.252a8.618,8.618,0,0,0,8.622,8.682q6.252.039,12.5,0a8.637,8.637,0,0,0,8.623-8.575q.05-6.313,0-12.628a8.613,8.613,0,0,0-8.63-8.546q-6.189-.024-12.378-.009a8.629,8.629,0,0,0-8.746,8.819Q769.121,1139.786,769.124,1142.785Z"/><path class="a" d="M769.124,1142.785q0-3,0-6a8.629,8.629,0,0,1,8.746-8.819q6.189-.013,12.378.009a8.613,8.613,0,0,1,8.63,8.546q.045,6.313,0,12.628a8.637,8.637,0,0,1-8.623,8.575q-6.252.04-12.5,0a8.618,8.618,0,0,1-8.622-8.682c-.01-2.084,0-4.168,0-6.252Zm2.293.063c0,1.959-.024,3.919.005,5.877.06,3.987,2.591,6.611,6.554,6.677q6,.1,12,0c3.943-.063,6.493-2.564,6.576-6.5q.127-6.062,0-12.129a6.268,6.268,0,0,0-6.592-6.5q-5.939-.078-11.879,0c-4.041.057-6.583,2.643-6.662,6.7C771.39,1138.929,771.421,1140.889,771.417,1142.848Z"/><path class="b" d="M771.419,1142.848c0-1.959-.029-3.919.008-5.877.079-4.056,2.621-6.642,6.662-6.7q5.938-.084,11.879,0a6.268,6.268,0,0,1,6.592,6.5q.117,6.063,0,12.129c-.083,3.936-2.633,6.437-6.576,6.5q-6,.094-12,0c-3.963-.066-6.494-2.69-6.554-6.677C771.393,1146.767,771.417,1144.807,771.419,1142.848Zm12.674-8.055a8.042,8.042,0,1,0,7.945,8.009A8.152,8.152,0,0,0,784.093,1134.793Zm10.229-.482a1.833,1.833,0,0,0-1.731-1.788,1.737,1.737,0,0,0-1.719,1.762,1.6,1.6,0,0,0,1.631,1.685A1.735,1.735,0,0,0,794.322,1134.311Z"/><path class="a" d="M784.093,1134.793a8.042,8.042,0,1,1-8.138,8.086A8.128,8.128,0,0,1,784.093,1134.793Zm5.576,8.126a5.666,5.666,0,1,0-5.652,5.589A5.561,5.561,0,0,0,789.669,1142.919Z"/><path class="a" d="M794.322,1134.311a1.735,1.735,0,0,1-1.819,1.659,1.6,1.6,0,0,1-1.631-1.685,1.737,1.737,0,0,1,1.719-1.762A1.833,1.833,0,0,1,794.322,1134.311Z"/><path class="b" d="M789.669,1142.919a5.666,5.666,0,1,1-5.744-5.74A5.6,5.6,0,0,1,789.669,1142.919Z"/></g></svg>