<svg xmlns="http://www.w3.org/2000/svg" width="80" height="70" viewBox="0 0 80 70"><defs><style>.a{fill:#fff;opacity:0;}.b{fill:#888072;fill-rule:evenodd;}</style></defs><g transform="translate(-735 -216)"><rect class="a" width="80" height="70" transform="translate(735 216)"/><path class="b" d="M911.857,220.985a1.1,1.1,0,0,0-.642.326l-.462-.384.308-.424c1.587-2.119-3.664-5.637-5.054-3.408l-.278.445-.527-.284a1.105,1.105,0,0,0,.061-.718l-.613-.269a1.678,1.678,0,0,0-.864,1.282l.478.468a1.106,1.106,0,0,0,.643-.326l.479.4-1.1,1.768-.613-.331a1.111,1.111,0,0,0,.061-.718l-.613-.268a1.678,1.678,0,0,0-.865,1.282l.479.468a1.113,1.113,0,0,0,.642-.326l.556.46-1.093,1.752-.7-.377a1.105,1.105,0,0,0,.061-.718l-.612-.269a1.676,1.676,0,0,0-.865,1.282l.478.468a1.106,1.106,0,0,0,.643-.326l.631.523-.471.756c-.571.916.369,2.052-.293,3.005l-.318.459L889.1,244.031c-2.156-1.18-5.575-2.56-7.941-1.06-3.2,2.031-3.766,6.421-5.005,8.259s-6.577,1.491-10.43,7.2-.743,11.351,5.657,15.667,12.6,4.954,16.45-.759,1.53-10.531,2.769-12.37,5.1-4,5.782-7.736c.5-2.755-2.057-5.408-3.959-6.964l11.2-17.783.342-.521c.637-.97,2.005-.472,2.64-1.345l.524-.72.723.39a1.105,1.105,0,0,0-.061.718l.612.268a1.676,1.676,0,0,0,.865-1.282l-.478-.468a1.115,1.115,0,0,0-.643.326l-.613-.508,1.215-1.669.636.343a1.1,1.1,0,0,0-.062.717l.613.269a1.682,1.682,0,0,0,.865-1.283l-.479-.467a1.112,1.112,0,0,0-.643.326l-.537-.446,1.226-1.685.549.3a1.112,1.112,0,0,0-.062.718l.613.268a1.676,1.676,0,0,0,.865-1.282Zm-27.4,40.87a4.114,4.114,0,1,1-1.111-5.712A4.122,4.122,0,0,1,884.462,261.855Z" transform="translate(-113.04 3.731)"/></g></svg>