<svg xmlns="http://www.w3.org/2000/svg" width="80" height="70" viewBox="0 0 80 70"><defs><style>.a{fill:#fff;opacity:0;}.b{fill:#888072;}</style></defs><g transform="translate(-173 -216)"><rect class="a" width="80" height="70" transform="translate(173 216)"/><path class="b" d="M339.507,248.815c0-10.584-10.081-19.165-22.519-19.165s-22.52,8.581-22.52,19.165,10.081,19.165,22.52,19.165a26.322,26.322,0,0,0,5.6-.6c2.838,3.75,7.316,8.041,13.478,9.24-2.885-3.467-4.206-8.594-4.808-12.98C336.3,260.125,339.507,254.79,339.507,248.815ZM302.6,238.67h28.15a1.274,1.274,0,0,1,0,2.506H302.6a1.274,1.274,0,0,1,0-2.506Zm0,5.26h28.15a1.274,1.274,0,0,1,0,2.505H302.6a1.274,1.274,0,0,1,0-2.505Zm0,5.26h28.15a1.274,1.274,0,0,1,0,2.506H302.6a1.274,1.274,0,0,1,0-2.506Zm0,7.769a1.274,1.274,0,0,1,0-2.506h28.15a1.274,1.274,0,0,1,0,2.506Z" transform="translate(-104.468 -1.65)"/></g></svg>