<svg xmlns="http://www.w3.org/2000/svg" width="80" height="70" viewBox="0 0 80 70"><defs><style>.a{fill:#fff;opacity:0;}.b{fill:#888072;}</style></defs><g transform="translate(-451 -216)"><rect class="a" width="80" height="70" transform="translate(451 216)"/><path class="b" d="M602.374,245.009a10.155,10.155,0,0,0-6.1,18.282v5.7a6.1,6.1,0,0,0,12.194,0v-5.7a10.152,10.152,0,0,0-6.1-18.277Zm0-.947a1.222,1.222,0,0,0,1.22-1.22V232.409a1.22,1.22,0,1,0-2.44,0v10.433A1.224,1.224,0,0,0,602.374,244.062ZM595,245.373a1.209,1.209,0,0,0,1.059.609,1.217,1.217,0,0,0,1.054-1.828l-5.215-9.035a1.221,1.221,0,0,0-2.115,1.22Zm-2.4,4.825a1.219,1.219,0,0,0-.445-1.667l-9.031-5.211a1.22,1.22,0,1,0-1.222,2.111l9.034,5.218a1.19,1.19,0,0,0,.608.162A1.21,1.21,0,0,0,592.594,250.2Zm31.131-7.173a1.216,1.216,0,0,0-1.663-.448l-9.035,5.214a1.221,1.221,0,0,0,.609,2.28,1.192,1.192,0,0,0,.61-.166l9.034-5.215A1.218,1.218,0,0,0,623.725,243.025ZM608.2,245.392a1.219,1.219,0,0,0,1.664-.446l5.216-9.036a1.217,1.217,0,1,0-2.111-1.212l-5.216,9.028A1.22,1.22,0,0,0,608.2,245.392Z" transform="translate(-111.286 -2.187)"/></g></svg>