<svg xmlns="http://www.w3.org/2000/svg" width="80" height="70" viewBox="0 0 80 70"><defs><style>.a{fill:#fff;opacity:0;}.b{fill:#888072;}</style></defs><g transform="translate(-312 -216)"><rect class="a" width="80" height="70" transform="translate(312 216)"/><path class="b" d="M451.486,247.288a4.918,4.918,0,1,0-4.913,5.1A5.008,5.008,0,0,0,451.486,247.288Zm33.227,23.6c0-10.218-5.243-18.5-11.709-18.5a7.874,7.874,0,0,0-3.692.946c-2.125-4.687-5.6-7.742-9.522-7.742s-7.4,3.055-9.524,7.742a7.878,7.878,0,0,0-3.693-.946c-6.465,0-11.711,8.284-11.711,18.5h23.416a28.059,28.059,0,0,0-.818-6.8h4.657a28.01,28.01,0,0,0-.817,6.8Zm-6.793-23.6a4.917,4.917,0,1,0-4.916,5.1A5.01,5.01,0,0,0,477.92,247.288Zm-13.217-6.8a4.918,4.918,0,1,0-4.913,5.1A5.011,5.011,0,0,0,464.7,240.488Z" transform="translate(-107.862 -2.389)"/></g></svg>