<svg xmlns="http://www.w3.org/2000/svg" width="80" height="70" viewBox="0 0 80 70"><defs><style>.a{fill:#fff;opacity:0;}.b{fill:#888072;}</style></defs><g transform="translate(-876 -216)"><rect class="a" width="80" height="70" transform="translate(876 216)"/><path class="b" d="M1053.771,242.979a8.8,8.8,0,0,0-8.694-7.45h-28.218a8.8,8.8,0,0,0-8.7,7.46,2.756,2.756,0,0,0-2.175,2.692v2.479a2.755,2.755,0,0,0,2.754,2.753h6.331a2.753,2.753,0,0,0,2.755-2.753v-2.479a2.743,2.743,0,0,0-2.059-2.654,5.769,5.769,0,0,1,5.246-3.373h1.68a2.333,2.333,0,0,0-.029.293v10.978h-3.381a.838.838,0,0,0-.467.146.854.854,0,0,0-.3.387l-6.922,18.167a.824.824,0,0,0,.77,1.12h37.248a.814.814,0,0,0,.678-.354.828.828,0,0,0,.092-.766l-6.922-18.167a.822.822,0,0,0-.769-.533h-3.381V239.947a2.164,2.164,0,0,0-.029-.293h1.646a5.776,5.776,0,0,1,5.252,3.385,2.739,2.739,0,0,0-2.031,2.642v2.479a2.755,2.755,0,0,0,2.753,2.753h6.334a2.755,2.755,0,0,0,2.753-2.753v-2.479A2.762,2.762,0,0,0,1053.771,242.979Zm-18.966-3.325c-.008.1-.023.191-.023.293v10.978H1027.2V239.947a2.767,2.767,0,0,0-.028-.293Zm.94,26.714a7.171,7.171,0,1,1-.513-10.129A7.181,7.181,0,0,1,1035.745,266.368Zm-8.249-.343a.8.8,0,1,0,1.109.224A.8.8,0,0,0,1027.5,266.025Zm2.815.573a.8.8,0,1,0,1.108.224A.8.8,0,0,0,1030.311,266.6Zm.257-9.96a.8.8,0,1,0-1.106-.229A.8.8,0,0,0,1030.568,256.638Zm-5.288,7.434a.8.8,0,1,0,1.108.224A.8.8,0,0,0,1025.28,264.072Zm2.481-6.506a.8.8,0,1,0-1.108-.227A.795.795,0,0,0,1027.761,257.566Zm6.953.265a.8.8,0,1,0,.885,1.33.789.789,0,0,0,.221-1.106A.8.8,0,0,0,1034.714,257.831Zm.358,5.622a.8.8,0,0,0-.225,1.106.8.8,0,1,0,1.334-.885A.8.8,0,0,0,1035.072,263.453Zm.573-2.812a.8.8,0,1,0,1.108.225A.8.8,0,0,0,1035.645,260.641Zm-2.527,5.031a.8.8,0,0,0-.229,1.105.8.8,0,1,0,1.336-.885A.8.8,0,0,0,1033.118,265.672Zm.263-8.459a.8.8,0,1,0-1.111-.23A.807.807,0,0,0,1033.381,257.213Z" transform="translate(-114.987 -2.529)"/></g></svg>