<svg xmlns="http://www.w3.org/2000/svg" width="44.998" height="45" viewBox="0 0 44.998 45"><defs><style>.a{fill:#4b2615;}.b{fill:#fff;}</style></defs><g transform="translate(-904.779 -1120.357)"><path class="a" d="M927.333,1120.357a22.5,22.5,0,1,1-22.554,22.5A22.51,22.51,0,0,1,927.333,1120.357Zm-.154,34.889c3.706-.2,7.407-.366,11.1-.62a4.794,4.794,0,0,0,4.534-4.647q.145-7.119,0-14.243a4.811,4.811,0,0,0-4.528-4.659,122.039,122.039,0,0,0-22.078.007,4.741,4.741,0,0,0-4.427,4.338q-.192,7.427,0,14.861a4.7,4.7,0,0,0,4.423,4.336C919.857,1154.872,923.516,1155.041,927.179,1155.246Z"/><path class="b" d="M927.179,1155.246c-3.663-.2-7.322-.374-10.975-.627a4.7,4.7,0,0,1-4.423-4.336q-.191-7.426,0-14.861a4.741,4.741,0,0,1,4.427-4.338,122.039,122.039,0,0,1,22.078-.007,4.811,4.811,0,0,1,4.528,4.659q.148,7.119,0,14.243a4.794,4.794,0,0,1-4.534,4.647C934.586,1154.88,930.885,1155.043,927.179,1155.246Zm-3.882-16.411v8.053l8.057-4.042Z"/><path class="a" d="M923.3,1138.835l8.057,4.011-8.057,4.042Z"/></g></svg>